<mxfile host="app.diagrams.net" modified="2023-03-13T22:50:26.329Z" agent="5.0 (Windows NT 10.0; Win64; x64) AppleWebKit/537.36 (KHTML, like Gecko) Chrome/110.0.0.0 Safari/537.36" etag="VeLGgxPVx6Rf9RCSl1h9" version="21.0.6" type="github">
  <diagram name="Página-1" id="KixKzHRUQ0QH3yWpuFrL">
    <mxGraphModel dx="880" dy="2814" grid="1" gridSize="10" guides="1" tooltips="1" connect="1" arrows="1" fold="1" page="1" pageScale="1" pageWidth="827" pageHeight="1169" math="0" shadow="0">
      <root>
        <mxCell id="0" />
        <mxCell id="1" parent="0" />
        <mxCell id="LtWXNLD-y333BuhR3tki-5" value="Início" style="strokeWidth=2;html=1;shape=mxgraph.flowchart.terminator;whiteSpace=wrap;" vertex="1" parent="1">
          <mxGeometry x="120" y="-1630" width="130" height="40" as="geometry" />
        </mxCell>
        <mxCell id="LtWXNLD-y333BuhR3tki-6" value="" style="endArrow=classic;html=1;rounded=0;" edge="1" parent="1">
          <mxGeometry width="50" height="50" relative="1" as="geometry">
            <mxPoint x="184.5" y="-1590" as="sourcePoint" />
            <mxPoint x="185" y="-1560" as="targetPoint" />
            <Array as="points">
              <mxPoint x="184.5" y="-1560" />
            </Array>
          </mxGeometry>
        </mxCell>
        <mxCell id="LtWXNLD-y333BuhR3tki-14" style="edgeStyle=orthogonalEdgeStyle;rounded=0;orthogonalLoop=1;jettySize=auto;html=1;" edge="1" parent="1" source="LtWXNLD-y333BuhR3tki-7">
          <mxGeometry relative="1" as="geometry">
            <mxPoint x="300" y="-1530" as="targetPoint" />
          </mxGeometry>
        </mxCell>
        <mxCell id="LtWXNLD-y333BuhR3tki-7" value="saldo" style="html=1;strokeWidth=2;shape=manualInput;whiteSpace=wrap;rounded=1;size=26;arcSize=11;" vertex="1" parent="1">
          <mxGeometry x="135" y="-1560" width="100" height="60" as="geometry" />
        </mxCell>
        <mxCell id="LtWXNLD-y333BuhR3tki-15" value="&quot;Saldo inicial: &quot; +&lt;br&gt;saldo" style="strokeWidth=2;html=1;shape=mxgraph.flowchart.display;whiteSpace=wrap;" vertex="1" parent="1">
          <mxGeometry x="300" y="-1560" width="100" height="60" as="geometry" />
        </mxCell>
        <mxCell id="LtWXNLD-y333BuhR3tki-16" value="" style="endArrow=classic;html=1;rounded=0;" edge="1" parent="1" source="LtWXNLD-y333BuhR3tki-15">
          <mxGeometry width="50" height="50" relative="1" as="geometry">
            <mxPoint x="350" y="-1450" as="sourcePoint" />
            <mxPoint x="240" y="-1430" as="targetPoint" />
            <Array as="points">
              <mxPoint x="350" y="-1430" />
            </Array>
          </mxGeometry>
        </mxCell>
        <mxCell id="LtWXNLD-y333BuhR3tki-18" value="encerrar&amp;nbsp; = &#39;n&#39;" style="rounded=1;whiteSpace=wrap;html=1;strokeWidth=2;" vertex="1" parent="1">
          <mxGeometry x="130" y="-1450" width="110" height="40" as="geometry" />
        </mxCell>
        <mxCell id="LtWXNLD-y333BuhR3tki-19" value="" style="endArrow=classic;html=1;rounded=0;" edge="1" parent="1" source="LtWXNLD-y333BuhR3tki-18">
          <mxGeometry width="50" height="50" relative="1" as="geometry">
            <mxPoint x="185" y="-1360" as="sourcePoint" />
            <mxPoint x="185" y="-1390" as="targetPoint" />
          </mxGeometry>
        </mxCell>
        <mxCell id="LtWXNLD-y333BuhR3tki-20" value="encerrar = &#39;n&#39;" style="rhombus;whiteSpace=wrap;html=1;" vertex="1" parent="1">
          <mxGeometry x="140" y="-1390" width="90" height="90" as="geometry" />
        </mxCell>
        <mxCell id="LtWXNLD-y333BuhR3tki-22" value="" style="endArrow=classic;html=1;rounded=0;" edge="1" parent="1" source="LtWXNLD-y333BuhR3tki-20">
          <mxGeometry width="50" height="50" relative="1" as="geometry">
            <mxPoint x="185" y="-1250" as="sourcePoint" />
            <mxPoint x="185" y="-1270" as="targetPoint" />
          </mxGeometry>
        </mxCell>
        <mxCell id="LtWXNLD-y333BuhR3tki-23" value="tipo de entrada" style="html=1;strokeWidth=2;shape=manualInput;whiteSpace=wrap;rounded=1;size=26;arcSize=11;" vertex="1" parent="1">
          <mxGeometry x="135" y="-1280" width="100" height="60" as="geometry" />
        </mxCell>
        <mxCell id="LtWXNLD-y333BuhR3tki-24" value="" style="endArrow=classic;html=1;rounded=0;" edge="1" parent="1" source="LtWXNLD-y333BuhR3tki-23">
          <mxGeometry width="50" height="50" relative="1" as="geometry">
            <mxPoint x="185" y="-1170" as="sourcePoint" />
            <mxPoint x="185" y="-1190" as="targetPoint" />
          </mxGeometry>
        </mxCell>
        <mxCell id="LtWXNLD-y333BuhR3tki-25" value="quantidade" style="html=1;strokeWidth=2;shape=manualInput;whiteSpace=wrap;rounded=1;size=26;arcSize=11;" vertex="1" parent="1">
          <mxGeometry x="135" y="-1200" width="100" height="60" as="geometry" />
        </mxCell>
        <mxCell id="LtWXNLD-y333BuhR3tki-26" value="" style="endArrow=classic;html=1;rounded=0;" edge="1" parent="1" source="LtWXNLD-y333BuhR3tki-25">
          <mxGeometry width="50" height="50" relative="1" as="geometry">
            <mxPoint x="185" y="-1080" as="sourcePoint" />
            <mxPoint x="185" y="-1110" as="targetPoint" />
          </mxGeometry>
        </mxCell>
        <mxCell id="LtWXNLD-y333BuhR3tki-27" value="tipo de entrada = 1" style="strokeWidth=2;html=1;shape=mxgraph.flowchart.decision;whiteSpace=wrap;" vertex="1" parent="1">
          <mxGeometry x="127.5" y="-1110" width="115" height="110" as="geometry" />
        </mxCell>
        <mxCell id="LtWXNLD-y333BuhR3tki-28" value="" style="endArrow=classic;html=1;rounded=0;" edge="1" parent="1" source="LtWXNLD-y333BuhR3tki-27">
          <mxGeometry width="50" height="50" relative="1" as="geometry">
            <mxPoint x="242.5" y="-1005" as="sourcePoint" />
            <mxPoint x="300" y="-1055" as="targetPoint" />
          </mxGeometry>
        </mxCell>
        <mxCell id="LtWXNLD-y333BuhR3tki-29" value="saldo = saldo + quantidade" style="rounded=1;whiteSpace=wrap;html=1;strokeWidth=2;" vertex="1" parent="1">
          <mxGeometry x="300" y="-1085" width="120" height="60" as="geometry" />
        </mxCell>
        <mxCell id="LtWXNLD-y333BuhR3tki-30" value="" style="endArrow=classic;html=1;rounded=0;" edge="1" parent="1" source="LtWXNLD-y333BuhR3tki-29">
          <mxGeometry width="50" height="50" relative="1" as="geometry">
            <mxPoint x="420" y="-1005" as="sourcePoint" />
            <mxPoint x="460" y="-1055" as="targetPoint" />
          </mxGeometry>
        </mxCell>
        <mxCell id="LtWXNLD-y333BuhR3tki-31" value="&quot;entrada: &quot; + quantidade" style="strokeWidth=2;html=1;shape=mxgraph.flowchart.display;whiteSpace=wrap;" vertex="1" parent="1">
          <mxGeometry x="460" y="-1085" width="100" height="60" as="geometry" />
        </mxCell>
        <mxCell id="LtWXNLD-y333BuhR3tki-32" value="" style="endArrow=classic;html=1;rounded=0;" edge="1" parent="1" source="LtWXNLD-y333BuhR3tki-27">
          <mxGeometry width="50" height="50" relative="1" as="geometry">
            <mxPoint x="185" y="-950" as="sourcePoint" />
            <mxPoint x="185" y="-950" as="targetPoint" />
          </mxGeometry>
        </mxCell>
        <mxCell id="LtWXNLD-y333BuhR3tki-33" value="" style="endArrow=classic;html=1;rounded=0;" edge="1" parent="1" source="LtWXNLD-y333BuhR3tki-31">
          <mxGeometry width="50" height="50" relative="1" as="geometry">
            <mxPoint x="510" y="-975" as="sourcePoint" />
            <mxPoint x="200" y="-970" as="targetPoint" />
            <Array as="points">
              <mxPoint x="510" y="-970" />
            </Array>
          </mxGeometry>
        </mxCell>
        <mxCell id="LtWXNLD-y333BuhR3tki-34" value="tipo de entrada = 2" style="strokeWidth=2;html=1;shape=mxgraph.flowchart.decision;whiteSpace=wrap;" vertex="1" parent="1">
          <mxGeometry x="130" y="-950" width="120" height="110" as="geometry" />
        </mxCell>
        <mxCell id="LtWXNLD-y333BuhR3tki-35" value="" style="endArrow=classic;html=1;rounded=0;" edge="1" parent="1" source="LtWXNLD-y333BuhR3tki-34">
          <mxGeometry width="50" height="50" relative="1" as="geometry">
            <mxPoint x="250" y="-845" as="sourcePoint" />
            <mxPoint x="310" y="-895" as="targetPoint" />
          </mxGeometry>
        </mxCell>
        <mxCell id="LtWXNLD-y333BuhR3tki-36" value="v" style="text;strokeColor=none;fillColor=none;html=1;fontSize=29;fontStyle=1;verticalAlign=middle;align=center;" vertex="1" parent="1">
          <mxGeometry x="110" y="-1310" width="100" height="40" as="geometry" />
        </mxCell>
        <mxCell id="LtWXNLD-y333BuhR3tki-37" value="v" style="text;strokeColor=none;fillColor=none;html=1;fontSize=29;fontStyle=1;verticalAlign=middle;align=center;" vertex="1" parent="1">
          <mxGeometry x="210" y="-1110" width="110" height="60" as="geometry" />
        </mxCell>
        <mxCell id="LtWXNLD-y333BuhR3tki-39" value="F" style="text;strokeColor=none;fillColor=none;html=1;fontSize=29;fontStyle=1;verticalAlign=middle;align=center;" vertex="1" parent="1">
          <mxGeometry x="100" y="-1000" width="110" height="60" as="geometry" />
        </mxCell>
        <mxCell id="LtWXNLD-y333BuhR3tki-40" value="saldo &amp;gt;= quantidade" style="strokeWidth=2;html=1;shape=mxgraph.flowchart.decision;whiteSpace=wrap;" vertex="1" parent="1">
          <mxGeometry x="310" y="-952.5" width="110" height="115" as="geometry" />
        </mxCell>
        <mxCell id="LtWXNLD-y333BuhR3tki-41" value="" style="endArrow=classic;html=1;rounded=0;" edge="1" parent="1" source="LtWXNLD-y333BuhR3tki-40">
          <mxGeometry width="50" height="50" relative="1" as="geometry">
            <mxPoint x="420" y="-845" as="sourcePoint" />
            <mxPoint x="480" y="-895" as="targetPoint" />
          </mxGeometry>
        </mxCell>
        <mxCell id="LtWXNLD-y333BuhR3tki-42" value="saldo = saldo - quantidade" style="rounded=1;whiteSpace=wrap;html=1;fontSize=12;strokeWidth=2;" vertex="1" parent="1">
          <mxGeometry x="480" y="-925" width="120" height="60" as="geometry" />
        </mxCell>
        <mxCell id="LtWXNLD-y333BuhR3tki-43" value="v" style="text;strokeColor=none;fillColor=none;html=1;fontSize=29;fontStyle=1;verticalAlign=middle;align=center;" vertex="1" parent="1">
          <mxGeometry x="390" y="-950" width="110" height="60" as="geometry" />
        </mxCell>
        <mxCell id="LtWXNLD-y333BuhR3tki-44" value="" style="endArrow=classic;html=1;rounded=0;" edge="1" parent="1" source="LtWXNLD-y333BuhR3tki-42">
          <mxGeometry width="50" height="50" relative="1" as="geometry">
            <mxPoint x="540" y="-815" as="sourcePoint" />
            <mxPoint x="540" y="-800" as="targetPoint" />
          </mxGeometry>
        </mxCell>
        <mxCell id="LtWXNLD-y333BuhR3tki-45" value="" style="endArrow=classic;html=1;rounded=0;" edge="1" parent="1" source="LtWXNLD-y333BuhR3tki-40">
          <mxGeometry width="50" height="50" relative="1" as="geometry">
            <mxPoint x="365" y="-787.5" as="sourcePoint" />
            <mxPoint x="365" y="-800" as="targetPoint" />
          </mxGeometry>
        </mxCell>
        <mxCell id="LtWXNLD-y333BuhR3tki-46" value="&quot;saída: &quot; + quantidade" style="strokeWidth=2;html=1;shape=mxgraph.flowchart.display;whiteSpace=wrap;" vertex="1" parent="1">
          <mxGeometry x="490" y="-800" width="100" height="60" as="geometry" />
        </mxCell>
        <mxCell id="LtWXNLD-y333BuhR3tki-47" value="&quot;saldo insuficiente&quot;" style="strokeWidth=2;html=1;shape=mxgraph.flowchart.display;whiteSpace=wrap;" vertex="1" parent="1">
          <mxGeometry x="315" y="-800" width="100" height="60" as="geometry" />
        </mxCell>
        <mxCell id="LtWXNLD-y333BuhR3tki-48" value="F" style="text;strokeColor=none;fillColor=none;html=1;fontSize=29;fontStyle=1;verticalAlign=middle;align=center;" vertex="1" parent="1">
          <mxGeometry x="290" y="-840" width="110" height="60" as="geometry" />
        </mxCell>
        <mxCell id="LtWXNLD-y333BuhR3tki-49" value="" style="endArrow=classic;html=1;rounded=0;" edge="1" parent="1" source="LtWXNLD-y333BuhR3tki-34">
          <mxGeometry width="50" height="50" relative="1" as="geometry">
            <mxPoint x="190" y="-790" as="sourcePoint" />
            <mxPoint x="190" y="-680" as="targetPoint" />
          </mxGeometry>
        </mxCell>
        <mxCell id="LtWXNLD-y333BuhR3tki-50" value="F" style="text;strokeColor=none;fillColor=none;html=1;fontSize=29;fontStyle=1;verticalAlign=middle;align=center;" vertex="1" parent="1">
          <mxGeometry x="120" y="-810" width="110" height="60" as="geometry" />
        </mxCell>
        <mxCell id="LtWXNLD-y333BuhR3tki-52" value="" style="endArrow=classic;html=1;rounded=0;" edge="1" parent="1" source="LtWXNLD-y333BuhR3tki-47">
          <mxGeometry width="50" height="50" relative="1" as="geometry">
            <mxPoint x="365" y="-690" as="sourcePoint" />
            <mxPoint x="190" y="-720" as="targetPoint" />
            <Array as="points">
              <mxPoint x="365" y="-720" />
            </Array>
          </mxGeometry>
        </mxCell>
        <mxCell id="LtWXNLD-y333BuhR3tki-53" value="" style="endArrow=classic;html=1;rounded=0;" edge="1" parent="1" source="LtWXNLD-y333BuhR3tki-46">
          <mxGeometry width="50" height="50" relative="1" as="geometry">
            <mxPoint x="540" y="-690" as="sourcePoint" />
            <mxPoint x="190" y="-700" as="targetPoint" />
            <Array as="points">
              <mxPoint x="540" y="-700" />
            </Array>
          </mxGeometry>
        </mxCell>
        <mxCell id="LtWXNLD-y333BuhR3tki-54" value="saldo" style="strokeWidth=2;html=1;shape=mxgraph.flowchart.display;whiteSpace=wrap;" vertex="1" parent="1">
          <mxGeometry x="135" y="-680" width="100" height="60" as="geometry" />
        </mxCell>
        <mxCell id="LtWXNLD-y333BuhR3tki-55" value="" style="endArrow=classic;html=1;rounded=0;" edge="1" parent="1" source="LtWXNLD-y333BuhR3tki-54">
          <mxGeometry width="50" height="50" relative="1" as="geometry">
            <mxPoint x="185" y="-570" as="sourcePoint" />
            <mxPoint x="185" y="-590" as="targetPoint" />
          </mxGeometry>
        </mxCell>
        <mxCell id="LtWXNLD-y333BuhR3tki-56" value="encerrar ? (s/n)" style="html=1;strokeWidth=2;shape=manualInput;whiteSpace=wrap;rounded=1;size=26;arcSize=11;" vertex="1" parent="1">
          <mxGeometry x="135" y="-584" width="100" height="60" as="geometry" />
        </mxCell>
        <mxCell id="LtWXNLD-y333BuhR3tki-57" value="" style="endArrow=classic;html=1;rounded=0;entryX=0;entryY=0.5;entryDx=0;entryDy=0;" edge="1" parent="1" source="LtWXNLD-y333BuhR3tki-56" target="LtWXNLD-y333BuhR3tki-20">
          <mxGeometry width="50" height="50" relative="1" as="geometry">
            <mxPoint x="64.28932188134524" y="-504" as="sourcePoint" />
            <mxPoint x="90" y="-1350" as="targetPoint" />
            <Array as="points">
              <mxPoint x="100" y="-554" />
              <mxPoint x="90" y="-554" />
              <mxPoint x="90" y="-1330" />
              <mxPoint x="90" y="-1345" />
            </Array>
          </mxGeometry>
        </mxCell>
        <mxCell id="LtWXNLD-y333BuhR3tki-59" value="" style="endArrow=classic;html=1;rounded=0;" edge="1" parent="1" source="LtWXNLD-y333BuhR3tki-20">
          <mxGeometry width="50" height="50" relative="1" as="geometry">
            <mxPoint x="230" y="-1295" as="sourcePoint" />
            <mxPoint x="240" y="-470" as="targetPoint" />
            <Array as="points">
              <mxPoint x="640" y="-1345" />
              <mxPoint x="640" y="-620" />
              <mxPoint x="640" y="-470" />
            </Array>
          </mxGeometry>
        </mxCell>
        <mxCell id="LtWXNLD-y333BuhR3tki-60" value="F" style="text;strokeColor=none;fillColor=none;html=1;fontSize=25;fontStyle=1;verticalAlign=middle;align=center;" vertex="1" parent="1">
          <mxGeometry x="390" y="-1390" width="110" height="60" as="geometry" />
        </mxCell>
        <mxCell id="LtWXNLD-y333BuhR3tki-61" value="&quot;sistema encerrado&quot;" style="strokeWidth=2;html=1;shape=mxgraph.flowchart.display;whiteSpace=wrap;" vertex="1" parent="1">
          <mxGeometry x="135" y="-500" width="100" height="60" as="geometry" />
        </mxCell>
        <mxCell id="LtWXNLD-y333BuhR3tki-62" value="" style="endArrow=classic;html=1;rounded=0;" edge="1" parent="1" source="LtWXNLD-y333BuhR3tki-61">
          <mxGeometry width="50" height="50" relative="1" as="geometry">
            <mxPoint x="185" y="-390" as="sourcePoint" />
            <mxPoint x="185" y="-400" as="targetPoint" />
          </mxGeometry>
        </mxCell>
        <mxCell id="LtWXNLD-y333BuhR3tki-63" value="Fim" style="strokeWidth=2;html=1;shape=mxgraph.flowchart.terminator;whiteSpace=wrap;" vertex="1" parent="1">
          <mxGeometry x="120" y="-400" width="130" height="40" as="geometry" />
        </mxCell>
      </root>
    </mxGraphModel>
  </diagram>
</mxfile>
